<svg xmlns="http://www.w3.org/2000/svg" xmlns:xlink="http://www.w3.org/1999/xlink" width="500" zoomAndPan="magnify" viewBox="0 0 375 374.999991" height="500" preserveAspectRatio="xMidYMid meet" version="1.0"><defs><g/><clipPath id="7c32bd075d"><path d="M 67.421875 90.394531 L 292 90.394531 L 292 201.925781 L 67.421875 201.925781 Z M 67.421875 90.394531 " clip-rule="nonzero"/></clipPath><clipPath id="634316aef2"><path d="M 246 180 L 282 180 L 282 201.925781 L 246 201.925781 Z M 246 180 " clip-rule="nonzero"/></clipPath></defs><rect x="-37.5" width="450" fill="#ffffff" y="-37.499999" height="449.999989" fill-opacity="1"/><rect x="-37.5" width="450" fill="#585858" y="-37.499999" height="449.999989" fill-opacity="1"/><path fill="#ffffff" d="M 296.125 120.292969 L 281.171875 120.292969 C 275.117188 120.292969 270.191406 125.21875 270.191406 131.273438 C 270.191406 137.328125 275.117188 142.253906 281.171875 142.253906 L 296.125 142.253906 C 302.179688 142.253906 307.105469 137.328125 307.105469 131.273438 C 307.105469 125.21875 302.179688 120.292969 296.125 120.292969 Z M 296.125 135.246094 L 281.171875 135.246094 C 278.984375 135.246094 277.199219 133.464844 277.199219 131.273438 C 277.199219 129.085938 278.984375 127.304688 281.171875 127.304688 L 296.125 127.304688 C 298.316406 127.304688 300.097656 129.085938 300.097656 131.273438 C 300.097656 133.464844 298.316406 135.246094 296.125 135.246094 Z M 296.125 135.246094 " fill-opacity="1" fill-rule="nonzero"/><g clip-path="url(#7c32bd075d)"><path fill="#ffffff" d="M 225.570312 180.105469 L 215.035156 180.105469 C 212.832031 180.105469 210.957031 178.40625 210.859375 176.324219 C 210.808594 175.226562 211.195312 174.179688 211.953125 173.390625 C 212.710938 172.597656 213.730469 172.15625 214.828125 172.15625 L 257.34375 172.15625 C 263.398438 172.15625 268.324219 167.230469 268.324219 161.175781 C 268.324219 155.125 263.398438 150.203125 257.34375 150.203125 L 227.183594 150.203125 C 224.980469 150.203125 223.105469 148.503906 223.007812 146.421875 C 222.957031 145.320312 223.34375 144.277344 224.101562 143.484375 C 224.859375 142.691406 225.878906 142.253906 226.972656 142.253906 L 242.859375 142.253906 C 248.914062 142.253906 253.839844 137.328125 253.839844 131.273438 C 253.839844 125.21875 248.914062 120.292969 242.859375 120.292969 L 208.964844 120.292969 C 206.757812 120.292969 204.882812 118.601562 204.785156 116.519531 C 204.734375 115.417969 205.121094 114.375 205.875 113.582031 C 206.632812 112.789062 207.65625 112.351562 208.75 112.351562 L 280.707031 112.351562 C 283.695312 112.351562 286.589844 111.113281 288.652344 108.953125 C 290.742188 106.757812 291.816406 103.878906 291.675781 100.84375 C 291.398438 94.984375 286.488281 90.390625 280.496094 90.390625 L 142.753906 90.390625 C 140.820312 90.390625 139.25 91.960938 139.25 93.894531 C 139.25 95.832031 140.820312 97.398438 142.753906 97.398438 L 280.496094 97.398438 C 282.703125 97.398438 284.574219 99.097656 284.671875 101.175781 C 284.726562 102.277344 284.335938 103.320312 283.578125 104.113281 C 282.824219 104.90625 281.800781 105.34375 280.707031 105.34375 L 208.75 105.34375 C 205.765625 105.34375 202.871094 106.582031 200.808594 108.746094 C 198.714844 110.9375 197.640625 113.816406 197.785156 116.847656 C 198.058594 122.710938 202.96875 127.304688 208.964844 127.304688 L 242.859375 127.304688 C 245.046875 127.304688 246.832031 129.085938 246.832031 131.273438 C 246.832031 133.464844 245.046875 135.246094 242.859375 135.246094 L 226.972656 135.246094 C 223.988281 135.246094 221.089844 136.488281 219.027344 138.648438 C 216.9375 140.839844 215.863281 143.71875 216.007812 146.753906 C 216.28125 152.613281 221.191406 157.210938 227.183594 157.210938 L 257.34375 157.210938 C 259.535156 157.210938 261.316406 158.988281 261.316406 161.179688 C 261.316406 163.371094 259.535156 165.152344 257.34375 165.152344 L 214.828125 165.152344 C 211.839844 165.152344 208.941406 166.390625 206.878906 168.554688 C 204.789062 170.742188 203.714844 173.621094 203.859375 176.65625 C 204.132812 182.519531 209.046875 187.113281 215.035156 187.113281 L 225.570312 187.113281 C 227.761719 187.113281 229.542969 188.894531 229.542969 191.085938 C 229.542969 193.273438 227.761719 195.054688 225.570312 195.054688 L 79.4375 195.054688 C 76.929688 195.054688 74.886719 193.011719 74.886719 190.503906 L 74.886719 118.425781 L 158.757812 118.425781 C 160.691406 118.425781 162.261719 116.855469 162.261719 114.921875 C 162.261719 112.988281 160.691406 111.417969 158.757812 111.417969 L 74.886719 111.417969 L 74.886719 101.949219 C 74.886719 99.441406 76.929688 97.398438 79.4375 97.398438 L 128.738281 97.398438 C 130.671875 97.398438 132.242188 95.832031 132.242188 93.894531 C 132.242188 91.960938 130.671875 90.390625 128.738281 90.390625 L 79.4375 90.390625 C 73.066406 90.390625 67.878906 95.578125 67.878906 101.949219 L 67.878906 190.503906 C 67.878906 196.878906 73.066406 202.0625 79.4375 202.0625 L 225.570312 202.0625 C 231.628906 202.0625 236.550781 197.136719 236.550781 191.078125 C 236.550781 185.027344 231.628906 180.105469 225.570312 180.105469 Z M 225.570312 180.105469 " fill-opacity="1" fill-rule="nonzero"/></g><g clip-path="url(#634316aef2)"><path fill="#ffffff" d="M 270.894531 180.105469 L 257.8125 180.105469 C 251.757812 180.105469 246.832031 185.027344 246.832031 191.085938 C 246.832031 197.136719 251.757812 202.0625 257.8125 202.0625 L 270.894531 202.0625 C 276.949219 202.0625 281.875 197.136719 281.875 191.085938 C 281.875 185.027344 276.949219 180.105469 270.894531 180.105469 Z M 270.894531 195.050781 L 257.8125 195.050781 C 255.621094 195.050781 253.839844 193.269531 253.839844 191.085938 C 253.839844 188.894531 255.621094 187.113281 257.8125 187.113281 L 270.894531 187.113281 C 273.082031 187.113281 274.863281 188.894531 274.863281 191.085938 C 274.863281 193.269531 273.082031 195.050781 270.894531 195.050781 Z M 270.894531 195.050781 " fill-opacity="1" fill-rule="nonzero"/></g><path fill="#ffffff" d="M 188.660156 118.425781 C 190.59375 118.425781 192.164062 116.855469 192.164062 114.921875 C 192.164062 112.988281 190.59375 111.417969 188.660156 111.417969 L 173.242188 111.417969 C 171.304688 111.417969 169.738281 112.988281 169.738281 114.921875 C 169.738281 116.855469 171.304688 118.425781 173.242188 118.425781 Z M 188.660156 118.425781 " fill-opacity="1" fill-rule="nonzero"/><path fill="#ffffff" d="M 86.570312 105.109375 C 86.570312 106.789062 85.210938 108.148438 83.53125 108.148438 C 81.855469 108.148438 80.496094 106.789062 80.496094 105.109375 C 80.496094 103.433594 81.855469 102.074219 83.53125 102.074219 C 85.210938 102.074219 86.570312 103.433594 86.570312 105.109375 Z M 86.570312 105.109375 " fill-opacity="1" fill-rule="nonzero"/><path fill="#ffffff" d="M 97.78125 105.109375 C 97.78125 106.789062 96.421875 108.148438 94.746094 108.148438 C 93.070312 108.148438 91.710938 106.789062 91.710938 105.109375 C 91.710938 103.433594 93.070312 102.074219 94.746094 102.074219 C 96.421875 102.074219 97.78125 103.433594 97.78125 105.109375 Z M 97.78125 105.109375 " fill-opacity="1" fill-rule="nonzero"/><path fill="#ffffff" d="M 108.996094 105.109375 C 108.996094 106.789062 107.636719 108.148438 105.960938 108.148438 C 104.28125 108.148438 102.921875 106.789062 102.921875 105.109375 C 102.921875 103.433594 104.28125 102.074219 105.960938 102.074219 C 107.636719 102.074219 108.996094 103.433594 108.996094 105.109375 Z M 108.996094 105.109375 " fill-opacity="1" fill-rule="nonzero"/><path fill="#ffffff" d="M 95.121094 131.367188 C 93.753906 130 91.535156 130 90.164062 131.367188 L 80.121094 141.414062 C 78.75 142.78125 78.75 145 80.121094 146.367188 L 90.632812 156.882812 C 91.316406 157.566406 92.214844 157.910156 93.109375 157.910156 C 94.007812 157.910156 94.902344 157.566406 95.585938 156.882812 C 96.957031 155.511719 96.957031 153.292969 95.585938 151.929688 L 87.550781 143.890625 L 95.121094 136.324219 C 96.488281 134.953125 96.488281 132.734375 95.121094 131.367188 Z M 95.121094 131.367188 " fill-opacity="1" fill-rule="nonzero"/><path fill="#ffffff" d="M 119.132812 156.882812 C 119.820312 157.566406 120.714844 157.910156 121.613281 157.910156 C 122.507812 157.910156 123.40625 157.566406 124.089844 156.882812 L 134.601562 146.367188 C 135.972656 145 135.972656 142.78125 134.601562 141.414062 L 124.558594 131.367188 C 123.1875 130 120.96875 130 119.601562 131.367188 C 118.234375 132.734375 118.234375 134.953125 119.601562 136.324219 L 127.167969 143.890625 L 119.132812 151.929688 C 117.765625 153.292969 117.765625 155.511719 119.132812 156.882812 Z M 119.132812 156.882812 " fill-opacity="1" fill-rule="nonzero"/><path fill="#ffffff" d="M 102.21875 157.675781 C 103.449219 157.675781 104.640625 157.027344 105.28125 155.878906 L 116.496094 135.789062 C 117.4375 134.097656 116.832031 131.960938 115.144531 131.019531 C 113.453125 130.078125 111.316406 130.679688 110.375 132.371094 L 99.164062 152.464844 C 98.21875 154.152344 98.824219 156.285156 100.511719 157.230469 C 101.054688 157.53125 101.640625 157.675781 102.21875 157.675781 Z M 102.21875 157.675781 " fill-opacity="1" fill-rule="nonzero"/><path fill="#ffffff" d="M 145.675781 153.46875 L 176.042969 153.46875 C 177.980469 153.46875 179.550781 151.898438 179.550781 149.964844 C 179.550781 148.03125 177.980469 146.460938 176.042969 146.460938 L 145.675781 146.460938 C 143.738281 146.460938 142.171875 148.03125 142.171875 149.964844 C 142.171875 151.898438 143.738281 153.46875 145.675781 153.46875 Z M 145.675781 153.46875 " fill-opacity="1" fill-rule="nonzero"/><path fill="#ffffff" d="M 145.675781 137.113281 L 149.414062 137.113281 C 151.347656 137.113281 152.917969 135.546875 152.917969 133.609375 C 152.917969 131.675781 151.347656 130.105469 149.414062 130.105469 L 145.675781 130.105469 C 143.738281 130.105469 142.171875 131.675781 142.171875 133.609375 C 142.171875 135.546875 143.738281 137.113281 145.675781 137.113281 Z M 145.675781 137.113281 " fill-opacity="1" fill-rule="nonzero"/><path fill="#ffffff" d="M 205.714844 149.964844 C 205.714844 148.03125 204.144531 146.460938 202.210938 146.460938 L 187.726562 146.460938 C 185.789062 146.460938 184.222656 148.03125 184.222656 149.964844 C 184.222656 151.898438 185.789062 153.46875 187.726562 153.46875 L 202.210938 153.46875 C 204.144531 153.46875 205.714844 151.898438 205.714844 149.964844 Z M 205.714844 149.964844 " fill-opacity="1" fill-rule="nonzero"/><path fill="#ffffff" d="M 152.449219 167.253906 C 152.449219 165.316406 150.878906 163.75 148.945312 163.75 L 92.878906 163.75 C 90.941406 163.75 89.375 165.316406 89.375 167.253906 C 89.375 169.1875 90.941406 170.757812 92.878906 170.757812 L 148.945312 170.757812 C 150.878906 170.757812 152.449219 169.1875 152.449219 167.253906 Z M 152.449219 167.253906 " fill-opacity="1" fill-rule="nonzero"/><path fill="#ffffff" d="M 187.726562 163.75 L 161.09375 163.75 C 159.15625 163.75 157.589844 165.316406 157.589844 167.253906 C 157.589844 169.1875 159.15625 170.757812 161.09375 170.757812 L 187.726562 170.757812 C 189.660156 170.757812 191.230469 169.1875 191.230469 167.253906 C 191.230469 165.316406 189.660156 163.75 187.726562 163.75 Z M 187.726562 163.75 " fill-opacity="1" fill-rule="nonzero"/><path fill="#ffffff" d="M 92.878906 179.167969 C 90.941406 179.167969 89.375 180.734375 89.375 182.671875 C 89.375 184.605469 90.941406 186.175781 92.878906 186.175781 L 111.097656 186.175781 C 113.035156 186.175781 114.605469 184.605469 114.605469 182.671875 C 114.605469 180.734375 113.035156 179.167969 111.097656 179.167969 Z M 92.878906 179.167969 " fill-opacity="1" fill-rule="nonzero"/><path fill="#ffffff" d="M 121.84375 179.167969 C 119.910156 179.167969 118.339844 180.734375 118.339844 182.671875 C 118.339844 184.605469 119.910156 186.175781 121.84375 186.175781 L 132.125 186.175781 C 134.058594 186.175781 135.628906 184.605469 135.628906 182.671875 C 135.628906 180.734375 134.058594 179.167969 132.125 179.167969 Z M 121.84375 179.167969 " fill-opacity="1" fill-rule="nonzero"/><path fill="#ffffff" d="M 141.46875 186.175781 L 187.726562 186.175781 C 189.660156 186.175781 191.230469 184.605469 191.230469 182.671875 C 191.230469 180.734375 189.660156 179.167969 187.726562 179.167969 L 141.46875 179.167969 C 139.535156 179.167969 137.964844 180.734375 137.964844 182.671875 C 137.964844 184.605469 139.535156 186.175781 141.46875 186.175781 Z M 141.46875 186.175781 " fill-opacity="1" fill-rule="nonzero"/><path fill="#ffffff" d="M 156.65625 134.078125 C 156.65625 136.011719 158.222656 137.582031 160.160156 137.582031 L 188.660156 137.582031 C 190.59375 137.582031 192.164062 136.011719 192.164062 134.078125 C 192.164062 132.144531 190.59375 130.574219 188.660156 130.574219 L 160.160156 130.574219 C 158.222656 130.574219 156.65625 132.144531 156.65625 134.078125 Z M 156.65625 134.078125 " fill-opacity="1" fill-rule="nonzero"/><g fill="#ffffff" fill-opacity="1"><g transform="translate(42.503972, 264.639832)"><g><path d="M 20.765625 -41.203125 C 24.910156 -41.203125 28.570312 -40.269531 31.75 -38.40625 L 30.53125 -32.625 L 29.90625 -32.4375 C 27.0625 -34.632812 23.925781 -35.734375 20.5 -35.734375 C 16.78125 -35.734375 13.9375 -34.472656 11.96875 -31.953125 C 10 -29.441406 9.015625 -25.691406 9.015625 -20.703125 C 9.015625 -15.578125 10.007812 -11.679688 12 -9.015625 C 13.988281 -6.347656 16.820312 -5.015625 20.5 -5.015625 C 22.28125 -5.015625 24.046875 -5.320312 25.796875 -5.9375 C 27.554688 -6.550781 29.175781 -7.40625 30.65625 -8.5 L 31.296875 -8.125 L 30.796875 -2.15625 C 27.148438 -0.375 23.550781 0.515625 20 0.515625 C 14.28125 0.515625 9.875 -1.257812 6.78125 -4.8125 C 3.695312 -8.375 2.15625 -13.4375 2.15625 -20 C 2.15625 -26.769531 3.773438 -31.992188 7.015625 -35.671875 C 10.253906 -39.359375 14.835938 -41.203125 20.765625 -41.203125 Z M 20.765625 -41.203125 "/></g></g></g><g fill="#ffffff" fill-opacity="1"><g transform="translate(75.450684, 264.639832)"><g><path d="M 16 -29.84375 C 20.101562 -29.84375 23.265625 -28.5625 25.484375 -26 C 27.710938 -23.4375 28.828125 -19.804688 28.828125 -15.109375 C 28.828125 -10.066406 27.640625 -6.191406 25.265625 -3.484375 C 22.898438 -0.773438 19.535156 0.578125 15.171875 0.578125 C 11.066406 0.578125 7.898438 -0.703125 5.671875 -3.265625 C 3.453125 -5.828125 2.34375 -9.457031 2.34375 -14.15625 C 2.34375 -19.195312 3.523438 -23.070312 5.890625 -25.78125 C 8.265625 -28.488281 11.632812 -29.84375 16 -29.84375 Z M 15.609375 -25.328125 C 10.785156 -25.328125 8.375 -22.066406 8.375 -15.546875 C 8.375 -11.578125 8.96875 -8.640625 10.15625 -6.734375 C 11.34375 -4.828125 13.160156 -3.875 15.609375 -3.875 C 18.023438 -3.875 19.828125 -4.675781 21.015625 -6.28125 C 22.203125 -7.894531 22.796875 -10.351562 22.796875 -13.65625 C 22.796875 -17.625 22.203125 -20.5625 21.015625 -22.46875 C 19.828125 -24.375 18.023438 -25.328125 15.609375 -25.328125 Z M 15.609375 -25.328125 "/></g></g></g><g fill="#ffffff" fill-opacity="1"><g transform="translate(106.683404, 264.639832)"><g><path d="M 27.546875 -12.890625 L 27.75 -6.796875 C 27.789062 -5.992188 27.914062 -5.441406 28.125 -5.140625 C 28.332031 -4.847656 28.753906 -4.703125 29.390625 -4.703125 C 29.859375 -4.703125 30.515625 -4.785156 31.359375 -4.953125 L 31.9375 -4.5 L 31.296875 -0.953125 C 30.066406 -0.191406 28.734375 0.269531 27.296875 0.4375 C 25.984375 0.3125 24.914062 -0.140625 24.09375 -0.921875 C 23.269531 -1.703125 22.75 -2.726562 22.53125 -4 L 22.03125 -4 C 20.800781 -2.9375 19.695312 -2.078125 18.71875 -1.421875 C 17.75 -0.765625 16.671875 -0.164062 15.484375 0.375 C 11.253906 0.375 8.003906 -0.921875 5.734375 -3.515625 C 3.472656 -6.117188 2.34375 -9.789062 2.34375 -14.53125 C 2.34375 -19.40625 3.613281 -23.164062 6.15625 -25.8125 C 8.695312 -28.457031 12.234375 -29.78125 16.765625 -29.78125 C 18.242188 -29.78125 19.894531 -29.609375 21.71875 -29.265625 L 21.578125 -44.0625 L 28 -44.5625 Z M 16.125 -25.328125 C 13.707031 -25.328125 11.8125 -24.5 10.4375 -22.84375 C 9.0625 -21.195312 8.375 -18.742188 8.375 -15.484375 C 8.375 -12.054688 9.007812 -9.429688 10.28125 -7.609375 C 11.550781 -5.796875 13.328125 -4.890625 15.609375 -4.890625 C 16.671875 -4.890625 17.6875 -5.140625 18.65625 -5.640625 C 19.632812 -6.148438 20.675781 -7.019531 21.78125 -8.25 L 21.90625 -12.3125 L 21.71875 -23.875 C 19.6875 -24.84375 17.820312 -25.328125 16.125 -25.328125 Z M 16.125 -25.328125 "/></g></g></g><g fill="#ffffff" fill-opacity="1"><g transform="translate(139.757066, 264.639832)"><g><path d="M 26.09375 -14.34375 L 8.25 -14.28125 C 8.289062 -11.0625 9.070312 -8.613281 10.59375 -6.9375 C 12.125 -5.269531 14.285156 -4.4375 17.078125 -4.4375 C 19.992188 -4.4375 22.847656 -5.304688 25.640625 -7.046875 L 26.28125 -6.671875 L 25.328125 -1.453125 C 22.242188 -0.0976562 19.238281 0.578125 16.3125 0.578125 C 11.957031 0.578125 8.539062 -0.765625 6.0625 -3.453125 C 3.582031 -6.140625 2.34375 -9.8125 2.34375 -14.46875 C 2.34375 -19.164062 3.570312 -22.890625 6.03125 -25.640625 C 8.488281 -28.398438 11.8125 -29.78125 16 -29.78125 C 19.550781 -29.78125 22.289062 -28.804688 24.21875 -26.859375 C 26.144531 -24.910156 27.109375 -22.15625 27.109375 -18.59375 C 27.109375 -17.625 27.003906 -16.460938 26.796875 -15.109375 Z M 21.265625 -19.359375 C 21.265625 -21.347656 20.804688 -22.847656 19.890625 -23.859375 C 18.984375 -24.878906 17.664062 -25.390625 15.9375 -25.390625 C 13.988281 -25.390625 12.378906 -24.765625 11.109375 -23.515625 C 9.835938 -22.265625 8.992188 -20.5 8.578125 -18.21875 L 21.140625 -18.46875 Z M 21.265625 -19.359375 "/></g></g></g><g fill="#ffffff" fill-opacity="1"><g transform="translate(169.275794, 264.639832)"><g><path d="M 42.40625 0 L 35.546875 0 L 28.375 -21.90625 L 27.9375 -21.90625 L 20.5 0 L 13.578125 0 L 1.265625 -40.75 L 7.75 -40.75 L 8.4375 -36.375 L 17.203125 -6.984375 L 17.71875 -6.984375 L 25.71875 -30.59375 L 22.46875 -40.75 L 29.140625 -40.75 L 30.15625 -35.734375 L 39.046875 -6.984375 L 39.546875 -6.984375 L 49.390625 -36 L 50.40625 -40.75 L 56.5 -40.75 Z M 42.40625 0 "/></g></g></g><g fill="#ffffff" fill-opacity="1"><g transform="translate(226.21837, 264.639832)"><g><path d="M 16 -29.84375 C 20.101562 -29.84375 23.265625 -28.5625 25.484375 -26 C 27.710938 -23.4375 28.828125 -19.804688 28.828125 -15.109375 C 28.828125 -10.066406 27.640625 -6.191406 25.265625 -3.484375 C 22.898438 -0.773438 19.535156 0.578125 15.171875 0.578125 C 11.066406 0.578125 7.898438 -0.703125 5.671875 -3.265625 C 3.453125 -5.828125 2.34375 -9.457031 2.34375 -14.15625 C 2.34375 -19.195312 3.523438 -23.070312 5.890625 -25.78125 C 8.265625 -28.488281 11.632812 -29.84375 16 -29.84375 Z M 15.609375 -25.328125 C 10.785156 -25.328125 8.375 -22.066406 8.375 -15.546875 C 8.375 -11.578125 8.96875 -8.640625 10.15625 -6.734375 C 11.34375 -4.828125 13.160156 -3.875 15.609375 -3.875 C 18.023438 -3.875 19.828125 -4.675781 21.015625 -6.28125 C 22.203125 -7.894531 22.796875 -10.351562 22.796875 -13.65625 C 22.796875 -17.625 22.203125 -20.5625 21.015625 -22.46875 C 19.828125 -24.375 18.023438 -25.328125 15.609375 -25.328125 Z M 15.609375 -25.328125 "/></g></g></g><g fill="#ffffff" fill-opacity="1"><g transform="translate(257.45109, 264.639832)"><g><path d="M 19.171875 -29.328125 C 19.640625 -29.328125 20.171875 -29.285156 20.765625 -29.203125 L 20.765625 -23.046875 L 20.0625 -22.859375 C 19.382812 -23.066406 18.601562 -23.171875 17.71875 -23.171875 C 16.40625 -23.171875 15.175781 -22.679688 14.03125 -21.703125 C 12.882812 -20.734375 11.785156 -19.171875 10.734375 -17.015625 L 10.671875 -12.828125 L 11.046875 0 L 4.578125 0 L 5.015625 -12.25 L 4.640625 -28.828125 L 10.796875 -29.390625 L 10.734375 -23.546875 L 11.171875 -23.546875 C 12.316406 -25.578125 13.585938 -27.046875 14.984375 -27.953125 C 16.378906 -28.867188 17.773438 -29.328125 19.171875 -29.328125 Z M 19.171875 -29.328125 "/></g></g></g><g fill="#ffffff" fill-opacity="1"><g transform="translate(278.65378, 264.639832)"><g><path d="M 10.859375 -12.890625 L 11.296875 0 L 4.828125 0 L 5.265625 -12.3125 L 4.890625 -44.0625 L 11.359375 -44.5625 Z M 18.09375 -15.9375 C 21.09375 -11.65625 24.878906 -6.722656 29.453125 -1.140625 L 29.453125 -0.375 C 28.359375 -0.0820312 27.175781 0.132812 25.90625 0.28125 C 24.632812 0.4375 23.847656 0.535156 23.546875 0.578125 L 22.859375 0.3125 C 18.492188 -5.1875 14.8125 -10.410156 11.8125 -15.359375 L 11.8125 -15.8125 L 20.125 -26.46875 L 21.71875 -29.265625 L 28.765625 -29.265625 Z M 18.09375 -15.9375 "/></g></g></g><g fill="#ffffff" fill-opacity="1"><g transform="translate(308.616882, 264.639832)"><g><path d="M 13.328125 -29.78125 C 15.867188 -29.78125 18.347656 -29.289062 20.765625 -28.3125 L 19.875 -23.234375 L 19.046875 -23.046875 C 16.847656 -24.523438 14.6875 -25.265625 12.5625 -25.265625 C 11.300781 -25.265625 10.296875 -24.925781 9.546875 -24.25 C 8.804688 -23.570312 8.4375 -22.75 8.4375 -21.78125 C 8.4375 -20.71875 8.867188 -19.867188 9.734375 -19.234375 C 10.609375 -18.597656 11.957031 -17.898438 13.78125 -17.140625 C 15.425781 -16.421875 16.765625 -15.742188 17.796875 -15.109375 C 18.835938 -14.472656 19.726562 -13.625 20.46875 -12.5625 C 21.207031 -11.507812 21.578125 -10.203125 21.578125 -8.640625 C 21.578125 -7.023438 21.15625 -5.507812 20.3125 -4.09375 C 19.46875 -2.675781 18.21875 -1.539062 16.5625 -0.6875 C 14.914062 0.15625 12.929688 0.578125 10.609375 0.578125 C 7.679688 0.578125 4.71875 -0.078125 1.71875 -1.390625 L 2.46875 -6.796875 L 3.171875 -7.234375 C 4.398438 -6.179688 5.753906 -5.347656 7.234375 -4.734375 C 8.710938 -4.117188 10.066406 -3.8125 11.296875 -3.8125 C 12.648438 -3.8125 13.738281 -4.179688 14.5625 -4.921875 C 15.394531 -5.660156 15.8125 -6.535156 15.8125 -7.546875 C 15.8125 -8.609375 15.382812 -9.445312 14.53125 -10.0625 C 13.6875 -10.675781 12.351562 -11.40625 10.53125 -12.25 C 8.882812 -12.96875 7.53125 -13.644531 6.46875 -14.28125 C 5.414062 -14.914062 4.519531 -15.78125 3.78125 -16.875 C 3.039062 -17.976562 2.671875 -19.335938 2.671875 -20.953125 C 2.671875 -23.535156 3.617188 -25.648438 5.515625 -27.296875 C 7.421875 -28.953125 10.023438 -29.78125 13.328125 -29.78125 Z M 13.328125 -29.78125 "/></g></g></g></svg>